<?xml version="1.0" encoding="UTF-8" standalone="no"?>
<!DOCTYPE svg PUBLIC "-//W3C//DTD SVG 1.0//EN" "http://www.w3.org/TR/2001/PR-SVG-20010719/DTD/svg10.dtd">
<svg width="52cm" height="14cm" viewBox="24 56 1031 275" xmlns="http://www.w3.org/2000/svg" xmlns:xlink="http://www.w3.org/1999/xlink">
  <g>
    <rect style="fill: #ffffff" x="25" y="95" width="179.4" height="28"/>
    <rect style="fill: none; fill-opacity:0; stroke-width: 2; stroke: #000000" x="25" y="95" width="179.4" height="28"/>
    <text font-size="16" style="fill: #000000;text-anchor:middle;font-family:sans-serif;font-style:normal;font-weight:700" x="114.7" y="114">Sequence</text>
    <rect style="fill: #ffffff" x="25" y="123" width="179.4" height="84"/>
    <rect style="fill: none; fill-opacity:0; stroke-width: 2; stroke: #000000" x="25" y="123" width="179.4" height="84"/>
    <text font-size="12.8" style="fill: #000000;text-anchor:start;font-family:monospace;font-style:normal;font-weight:normal" x="28" y="137">+sequence: str</text>
    <text font-size="12.8" style="fill: #000000;text-anchor:start;font-family:monospace;font-style:normal;font-weight:normal" x="28" y="153">+resolution: int = 0</text>
    <text font-size="12.8" style="fill: #000000;text-anchor:start;font-family:monospace;font-style:normal;font-weight:normal" x="28" y="169">+dmso_percent: int = 0</text>
    <text font-size="12.8" style="fill: #000000;text-anchor:start;font-family:monospace;font-style:normal;font-weight:normal" x="28" y="185">+cations: int = 20</text>
    <text font-size="12.8" style="fill: #000000;text-anchor:start;font-family:monospace;font-style:normal;font-weight:normal" x="28" y="201">+free_mg: int = 2</text>
    <rect style="fill: #ffffff" x="25" y="207" width="179.4" height="8"/>
    <rect style="fill: none; fill-opacity:0; stroke-width: 2; stroke: #000000" x="25" y="207" width="179.4" height="8"/>
  </g>
  <g>
    <rect style="fill: #ffffff" x="267" y="57" width="472" height="28"/>
    <rect style="fill: none; fill-opacity:0; stroke-width: 2; stroke: #000000" x="267" y="57" width="472" height="28"/>
    <text font-size="16" style="fill: #000000;text-anchor:middle;font-family:sans-serif;font-style:normal;font-weight:700" x="503" y="76">IMeltCalculator</text>
    <rect style="fill: #ffffff" x="267" y="85" width="472" height="8"/>
    <rect style="fill: none; fill-opacity:0; stroke-width: 2; stroke: #000000" x="267" y="85" width="472" height="8"/>
    <rect style="fill: #ffffff" x="267" y="93" width="472" height="36"/>
    <rect style="fill: none; fill-opacity:0; stroke-width: 2; stroke: #000000" x="267" y="93" width="472" height="36"/>
    <text font-size="12.8" style="fill: #000000;text-anchor:start;font-family:monospace;font-style:normal;font-weight:normal" x="270" y="107">+get_response(sequence:Sequence): requests.Response</text>
    <text font-size="12.8" style="fill: #000000;text-anchor:start;font-family:monospace;font-style:normal;font-weight:normal" x="270" y="123">+get_helicity_info(response:requests.Response): HelicityInfo</text>
  </g>
  <g>
    <rect style="fill: #ffffff" x="267" y="230" width="472" height="28"/>
    <rect style="fill: none; fill-opacity:0; stroke-width: 2; stroke: #000000" x="267" y="230" width="472" height="28"/>
    <text font-size="16" style="fill: #000000;text-anchor:middle;font-family:sans-serif;font-style:normal;font-weight:700" x="503" y="249">UmeltService</text>
    <rect style="fill: #ffffff" x="267" y="258" width="472" height="36"/>
    <rect style="fill: none; fill-opacity:0; stroke-width: 2; stroke: #000000" x="267" y="258" width="472" height="36"/>
    <text font-size="12.8" style="fill: #000000;text-anchor:start;font-family:monospace;font-style:normal;font-weight:normal" x="270" y="272">+url: str</text>
    <text font-size="12.8" style="fill: #000000;text-anchor:start;font-family:monospace;font-style:normal;font-weight:normal" x="270" y="288">+timeout: int = 500</text>
    <rect style="fill: #ffffff" x="267" y="294" width="472" height="36"/>
    <rect style="fill: none; fill-opacity:0; stroke-width: 2; stroke: #000000" x="267" y="294" width="472" height="36"/>
    <text font-size="12.8" style="fill: #000000;text-anchor:start;font-family:monospace;font-style:normal;font-weight:normal" x="270" y="308">+get_response(sequence:Sequence): requests.Response</text>
    <text font-size="12.8" style="fill: #000000;text-anchor:start;font-family:monospace;font-style:normal;font-weight:normal" x="270" y="324">+get_helicity_info(response:requests.Response): HelicityInfo</text>
  </g>
  <g>
    <rect style="fill: #ffffff" x="805" y="111" width="248.7" height="28"/>
    <rect style="fill: none; fill-opacity:0; stroke-width: 2; stroke: #000000" x="805" y="111" width="248.7" height="28"/>
    <text font-size="16" style="fill: #000000;text-anchor:middle;font-family:sans-serif;font-style:normal;font-weight:700" x="929.35" y="130">HelicityInfo</text>
    <rect style="fill: #ffffff" x="805" y="139" width="248.7" height="36"/>
    <rect style="fill: none; fill-opacity:0; stroke-width: 2; stroke: #000000" x="805" y="139" width="248.7" height="36"/>
    <text font-size="12.8" style="fill: #000000;text-anchor:start;font-family:monospace;font-style:normal;font-weight:normal" x="808" y="153">+helicity_data: numpy.array</text>
    <text font-size="12.8" style="fill: #000000;text-anchor:start;font-family:monospace;font-style:normal;font-weight:normal" x="808" y="169">+temperature_range: numpy.array</text>
    <rect style="fill: #ffffff" x="805" y="175" width="248.7" height="20"/>
    <rect style="fill: none; fill-opacity:0; stroke-width: 2; stroke: #000000" x="805" y="175" width="248.7" height="20"/>
    <text font-size="12.8" style="fill: #000000;text-anchor:start;font-family:monospace;font-style:normal;font-weight:normal" x="808" y="189">+get_melting_temp(): float</text>
  </g>
  <g>
    <polyline style="fill: none; fill-opacity:0; stroke-width: 2; stroke-dasharray: 8; stroke: #000000" points="503,148.245 503,147.009 503,227.994 503,228.994 "/>
    <polygon style="fill: #ffffff" points="511,148.245 503,132.245 495,148.245 "/>
    <polygon style="fill: none; fill-opacity:0; stroke-width: 2; stroke: #000000" points="511,148.245 503,132.245 495,148.245 "/>
  </g>
  <g>
    <polyline style="fill: none; fill-opacity:0; stroke-width: 2; stroke-dasharray: 8; stroke: #000000" points="265.993,93 239.699,93 239.699,155 212.111,155 "/>
    <polyline style="fill: none; fill-opacity:0; stroke-width: 2; stroke: #000000" points="224.758,150 208.758,155 224.758,160 "/>
  </g>
  <g>
    <polyline style="fill: none; fill-opacity:0; stroke-width: 2; stroke-dasharray: 8; stroke: #000000" points="740.007,93 768,93 768,153 797.287,153 "/>
    <polyline style="fill: none; fill-opacity:0; stroke-width: 2; stroke: #000000" points="784.64,158 800.64,153 784.64,148 "/>
  </g>
</svg>
